<svg width="92" height="92" viewBox="0 0 92 92" fill="none" xmlns="http://www.w3.org/2000/svg">
<g id="Group 39839">
<path id="Union" fill-rule="evenodd" clip-rule="evenodd" d="M40.195 0.83134C40.4416 0.272456 41.0233 -0.060781 41.6301 0.00923793C45.5932 0.466516 49.1383 2.38917 51.9194 4.52196C54.7046 6.6579 56.8251 9.08209 57.9498 10.7066L57.9638 10.727L57.9772 10.7478C65.1391 21.9203 63.9992 31.3876 62.2659 35.0534L65.1664 40.0762L68.1469 34.9149C66.4507 31.1534 65.4262 21.7823 72.4996 10.7478L72.513 10.727L72.527 10.7066C73.6517 9.08209 75.7722 6.6579 78.5574 4.52196C81.3385 2.38917 84.8836 0.466516 88.8467 0.00923793C89.4535 -0.060781 90.0352 0.272456 90.2818 0.83134C92.1887 5.15371 93.8258 16.0534 85.9283 26.2909L85.9123 26.3116L85.8955 26.3318C84.384 28.1458 81.7868 30.7811 78.8559 32.8361C76.4469 34.5252 73.5421 36.0147 70.7292 36.0181L66.5604 43.2372V59.9395H87.122C89.8165 59.9395 92.0008 62.1238 92.0008 64.8182V72.4849C92.0008 73.8507 91.4396 75.0854 90.5352 75.971C91.4381 76.8564 91.9982 78.09 91.9982 79.4545V87.1211C91.9982 89.8156 89.8139 91.9999 87.1194 91.9999H31.4336L31.3636 92L31.2937 91.9999H30.3164V91.9828C13.4795 91.4305 0 77.6076 0 60.6364C0 43.3147 14.042 29.2727 31.3636 29.2727C48.4524 29.2727 62.3491 42.9396 62.7197 59.9395H63.7725V43.2372L59.6028 36.0166C56.8352 35.9636 53.9886 34.4962 51.6209 32.8361C48.69 30.7811 46.0928 28.1458 44.5813 26.3318L44.5645 26.3116L44.5485 26.2909C36.651 16.0534 38.2881 5.15371 40.195 0.83134ZM72.4881 32.972C73.9645 32.5705 75.5929 31.719 77.2554 30.5534C79.9301 28.678 82.3421 26.2376 83.737 24.5672C90.2972 16.047 89.5048 7.1099 88.1096 2.94383C85.2226 3.51168 82.5292 4.98934 80.254 6.7342C77.7195 8.67785 75.8038 10.8768 74.8331 12.2735C69.4504 20.6819 69.2507 27.7833 70.0376 31.6407L78.2472 17.4241C78.6322 16.7575 79.4847 16.5291 80.1514 16.9141C80.8181 17.2991 81.0464 18.1516 80.6614 18.8183L72.4881 32.972ZM55.6437 12.2735C61.1125 20.8163 61.2312 28.0101 60.4007 31.8233L52.0857 17.4241C51.7007 16.7575 50.8482 16.5291 50.1815 16.9141C49.5148 17.2991 49.2864 18.1516 49.6714 18.8183L57.8166 32.9234C56.3863 32.5042 54.8196 31.674 53.2214 30.5534C50.5467 28.678 48.1347 26.2376 46.7398 24.5672C40.1796 16.047 40.972 7.1099 42.3672 2.94383C45.2542 3.51168 47.9476 4.98934 50.2228 6.7342C52.7573 8.67785 54.673 10.8768 55.6437 12.2735ZM62.6587 62.7273C62.38 66.9614 61.2611 70.9659 59.4671 74.5758H60.6346V74.5757H87.1194L87.1408 74.5757C88.2869 74.5656 89.213 73.6334 89.213 72.4849V64.8182C89.213 63.6635 88.2768 62.7273 87.122 62.7273H62.6587ZM57.8991 77.3637C54.6388 82.5248 49.9144 86.6687 44.3093 89.212H87.1194C88.2742 89.212 89.2103 88.2759 89.2103 87.1211V79.4545C89.2103 78.3065 88.2852 77.3746 87.1399 77.3637L87.122 77.3637H57.8991ZM31.4304 89.212C47.1816 89.176 59.9394 76.3961 59.9394 60.6364C59.9394 44.8544 47.1456 32.0606 31.3636 32.0606C15.5817 32.0606 2.78788 44.8544 2.78788 60.6364C2.78788 76.3961 15.5456 89.176 31.2969 89.212H31.4304ZM31.3633 40.4241C20.2004 40.4241 11.1512 49.4734 11.1512 60.6362C11.1512 71.7991 20.2004 80.8484 31.3633 80.8484C42.5261 80.8484 51.5754 71.7991 51.5754 60.6362C51.5754 49.4734 42.5261 40.4241 31.3633 40.4241ZM8.36328 60.6362C8.36328 47.9337 18.6607 37.6362 31.3633 37.6362C44.0658 37.6362 54.3633 47.9337 54.3633 60.6362C54.3633 73.3388 44.0658 83.6362 31.3633 83.6362C18.6607 83.6362 8.36328 73.3388 8.36328 60.6362ZM29.968 49.1362C26.5037 49.1362 23.6953 51.9446 23.6953 55.409V56.1059C23.6953 59.5703 26.5037 62.3787 29.968 62.3787H32.5817C34.4101 62.3787 35.8923 63.8609 35.8923 65.6893C35.8923 67.5177 34.4101 68.9999 32.5817 68.9999H29.968C28.0434 68.9999 26.4832 67.4397 26.4832 65.515V65.1665C26.4832 64.3967 25.8591 63.7726 25.0893 63.7726C24.3194 63.7726 23.6953 64.3967 23.6953 65.1665V65.515C23.6953 68.9793 26.5037 71.7878 29.968 71.7878H29.9688V74.9242C29.9688 75.6941 30.5928 76.3182 31.3627 76.3182C32.1325 76.3182 32.7566 75.6941 32.7566 74.9242V71.7853C36.0438 71.6927 38.6802 68.9988 38.6802 65.6893C38.6802 62.3212 35.9498 59.5908 32.5817 59.5908H29.968C28.0434 59.5908 26.4832 58.0306 26.4832 56.1059V55.409C26.4832 53.4843 28.0434 51.9241 29.968 51.9241H31.354L31.3627 51.9241L31.3714 51.9241H32.4074C34.3321 51.9241 35.8923 53.4843 35.8923 55.409V55.7574C35.8923 56.5273 36.5164 57.1514 37.2862 57.1514C38.0561 57.1514 38.6802 56.5273 38.6802 55.7574V55.409C38.6802 52.0618 36.0585 49.327 32.7566 49.1458V45.9999C32.7566 45.23 32.1325 44.606 31.3627 44.606C30.5928 44.606 29.9688 45.23 29.9688 45.9999V49.1362H29.968Z" fill="white"/>
</g>
</svg>
