<svg width="92" height="94" viewBox="0 0 92 94" fill="none" xmlns="http://www.w3.org/2000/svg">
<g id="Group 39844">
<path id="Vector 502 (Stroke)" fill-rule="evenodd" clip-rule="evenodd" d="M57.517 3.37695C57.8237 1.43238 59.4996 0 61.4682 0H66.7902C68.8534 0 70.5781 1.56922 70.7724 3.62323L71.0434 6.48752L74.2302 7.88448L77.571 6.06197C79.1435 5.20413 81.0946 5.49631 82.3468 6.77716L85.7792 10.288C87.0147 11.5518 87.2744 13.4766 86.4179 15.0227L84.4198 18.6294L85.3008 21.4454L88.936 22.3203C90.7332 22.7528 92 24.3606 92 26.2092V30.6911C92 32.4564 90.8428 34.0129 89.1523 34.5215L85.3487 35.6658L84.4174 38.8808L86.3011 42.0542C87.2488 43.6509 86.9732 45.6898 85.6355 46.9776L81.6999 50.7664C80.3164 52.0983 78.1814 52.259 76.6141 51.1491L74.0247 49.3154L70.6099 50.5548V53C70.6099 55.2091 68.8191 57 66.6099 57H61.4682C59.4996 57 57.8237 55.5676 57.517 53.623L57.0355 50.569L54 49.3041L50.3933 51.3792C48.7251 52.339 46.61 51.9748 45.3589 50.5123L42.2312 46.8561C41.0931 45.5257 40.9525 43.6098 41.8841 42.1275L43.9005 38.9192L42.7311 35.6898L38.8477 34.5215C37.1572 34.0129 36 32.4564 36 30.6911V26.2092C36 24.3606 37.2668 22.7528 39.064 22.3203L42.7144 21.4417L43.9016 17.7986L42.0832 15.2152C41.0033 13.6811 41.1347 11.6025 42.3993 10.2166L45.4511 6.87209C46.6663 5.54036 48.6221 5.18609 50.2272 6.00697L53.9093 7.8901L57.029 6.47188L57.517 3.37695ZM66.7902 4H61.4682L60.9802 7.09492C60.7708 8.42291 59.9083 9.55689 58.6844 10.1133L55.5647 11.5315C54.4542 12.0363 53.174 12.0068 52.088 11.4514L48.4059 9.56825L45.3541 12.9128L47.1725 15.4961C47.8981 16.5269 48.0954 17.8394 47.7048 19.038L46.5175 22.6811C46.087 24.0024 45.0014 25.0055 43.6504 25.3307L40 26.2092L40 30.6911L43.8834 31.8594C45.0943 32.2236 46.0616 33.139 46.4921 34.3279L47.6615 37.5574C48.0811 38.7164 47.943 40.0041 47.2871 41.0477L45.2708 44.2559L48.3985 47.9122L52.0052 45.837C53.0838 45.2164 54.3899 45.1332 55.5386 45.6119L58.5741 46.8768C59.8568 47.4113 60.7702 48.5733 60.9866 49.946L61.4682 53H66.6099V50.5548C66.6099 48.8719 67.6633 47.3689 69.2452 46.7948L72.66 45.5554C73.8926 45.108 75.2662 45.2932 76.3363 46.051L78.9258 47.8847L82.8614 44.0959L80.9777 40.9225C80.4134 39.9718 80.2677 38.8298 80.5754 37.7679L81.5067 34.5528C81.8843 33.2494 82.8969 32.2263 84.1964 31.8354L88 30.6911V26.2092L84.3648 25.3343C82.9973 25.0052 81.9032 23.982 81.4832 22.6397L80.6022 19.8237C80.2757 18.7798 80.3908 17.6477 80.9208 16.691L82.919 13.0842L79.4866 9.57344L76.1458 11.396C75.0587 11.989 73.7583 12.0451 72.6242 11.5479L69.4375 10.151C68.1075 9.56796 67.198 8.30996 67.0612 6.86428L66.7902 4Z" fill="white"/>
<path id="Vector 503 (Stroke)" fill-rule="evenodd" clip-rule="evenodd" d="M29.9298 23.0249C31.0207 23.1976 31.7651 24.2221 31.5924 25.313L30.5908 31.6399C30.3803 32.969 29.5157 34.1032 28.2899 34.6583L23.8285 36.6783C22.7213 37.1796 21.4461 37.1503 20.3631 36.5986L15.0857 33.9104L10.6489 38.7533L13.351 42.5767C14.081 43.6097 14.2795 44.927 13.8861 46.1292L12.2059 51.2645C11.7739 52.5849 10.6877 53.5865 9.33664 53.9104L4 55.1896L4 61.6612L9.56917 63.3299C10.7802 63.6928 11.7484 64.6068 12.1803 65.7949L13.8425 70.367C14.2652 71.5295 14.1262 72.8222 13.4661 73.8683L10.565 78.4657L15.0783 83.7206L20.2802 80.7396C21.3561 80.1231 22.6571 80.0404 23.8024 80.5157L28.1798 82.3326C29.4643 82.8657 30.3797 84.0278 30.5972 85.4015L31.3253 90.0003H38.8511V86.0125C38.8511 84.3277 39.9068 82.8235 41.4912 82.2508L46.4459 80.4597C47.6748 80.0154 49.0433 80.1995 50.1112 80.9526L53.9971 83.6934L59.6165 78.3053L56.8975 73.7429C56.3294 72.7898 56.1828 71.6435 56.4927 70.5781L57.8182 66.0205C58.1972 64.7175 59.211 63.6954 60.511 63.3059L67.4259 61.2339C68.484 60.9169 69.5988 61.5176 69.9158 62.5757C70.2329 63.6338 69.6321 64.7486 68.5741 65.0656L61.6591 67.1376L60.3336 71.6951L63.0526 76.2576C64.006 77.8574 63.7292 79.9036 62.3849 81.1926L56.7655 86.5806C55.3835 87.9057 53.2563 88.0657 51.6917 86.9622L47.8057 84.2214L42.8511 86.0125V90.0003C42.8511 92.2094 41.0602 94.0003 38.8511 94.0003H31.3253C29.3576 94.0003 27.6822 92.5692 27.3745 90.6258L26.6464 86.027L22.269 84.2102L17.0671 87.1911C15.4022 88.1453 13.2942 87.7825 12.0439 86.3268L7.53059 81.0719C6.38621 79.7395 6.24489 77.8165 7.18219 76.3311L10.0832 71.7337L8.42105 67.1616L2.85189 65.4929C1.15931 64.9857 0 63.4281 0 61.6612V55.1896C0 53.3397 1.26858 51.7311 3.06758 51.2998L8.40422 50.0206L10.0844 44.8853L7.38231 41.0619C6.29615 39.5251 6.42819 37.4389 7.69947 36.0513L12.1363 31.2084C13.3505 29.883 15.2996 29.5303 16.9012 30.3462L22.1786 33.0344L26.64 31.0144L27.6416 24.6875C27.8143 23.5966 28.8388 22.8522 29.9298 23.0249Z" fill="white"/>
<path id="Ellipse 270 (Stroke)" fill-rule="evenodd" clip-rule="evenodd" d="M63.5 21C59.3579 21 56 24.3579 56 28.5C56 32.6421 59.3579 36 63.5 36C67.6421 36 71 32.6421 71 28.5C71 24.3579 67.6421 21 63.5 21ZM52 28.5C52 22.1487 57.1487 17 63.5 17C69.8513 17 75 22.1487 75 28.5C75 34.8513 69.8513 40 63.5 40C57.1487 40 52 34.8513 52 28.5Z" fill="white"/>
<path id="Ellipse 271 (Stroke)" fill-rule="evenodd" clip-rule="evenodd" d="M34.5 50C29.2533 50 25 54.2533 25 59.5C25 64.7467 29.2533 69 34.5 69C39.7467 69 44 64.7467 44 59.5C44 58.3954 44.8954 57.5 46 57.5C47.1046 57.5 48 58.3954 48 59.5C48 66.9558 41.9558 73 34.5 73C27.0442 73 21 66.9558 21 59.5C21 52.0442 27.0442 46 34.5 46C35.6046 46 36.5 46.8954 36.5 48C36.5 49.1046 35.6046 50 34.5 50Z" fill="white"/>
</g>
</svg>
