<svg width="92" height="84" viewBox="0 0 92 84" fill="none" xmlns="http://www.w3.org/2000/svg">
<g id="Group 39841">
<path id="Union" fill-rule="evenodd" clip-rule="evenodd" d="M3.91489 1.95745C3.91489 0.876379 3.03851 0 1.95745 0C0.876379 0 0 0.876379 0 1.95745V83.1915H90.0426C91.1236 83.1915 92 82.3151 92 81.234C92 80.153 91.1236 79.2766 90.0426 79.2766H3.91489V1.95745ZM13.704 59.2128C13.704 56.5101 15.8949 54.3192 18.5976 54.3192C21.3002 54.3192 23.4912 56.5101 23.4912 59.2128C23.4912 61.9155 21.3002 64.1064 18.5976 64.1064C15.8949 64.1064 13.704 61.9155 13.704 59.2128ZM18.5976 50.4043C13.7328 50.4043 9.78906 54.348 9.78906 59.2128C9.78906 64.0776 13.7328 68.0213 18.5976 68.0213C23.4624 68.0213 27.4061 64.0776 27.4061 59.2128C27.4061 56.7398 26.387 54.5049 24.7459 52.905L30.6185 43.9853C31.6017 44.339 32.6616 44.5318 33.7666 44.5318C37.8753 44.5318 41.3615 41.8668 42.591 38.1712L52.9101 39.2404C53.4082 43.7726 57.0299 47.4683 61.6601 47.4683C66.6499 47.4683 70.4686 43.1761 70.4686 38.1704C70.4686 36.4316 70.0078 34.7788 69.1971 33.3621L76.9723 25.1777C78.1342 25.6669 79.4135 25.9364 80.7432 25.9364C85.7489 25.9364 90.0411 22.1177 90.0411 17.1278C90.0411 12.138 85.7489 8.31934 80.7432 8.31934C75.7375 8.31934 71.4453 12.138 71.4453 17.1278C71.4453 19.3729 72.3142 21.3809 73.7261 22.9107L66.5695 30.444C65.1808 29.4562 63.5 28.8726 61.6601 28.8726C57.6462 28.8726 54.3902 31.6499 53.27 35.3419L43.0161 34.2794C42.5382 29.5927 38.5794 25.936 33.7666 25.936C28.6315 25.936 24.4688 30.0988 24.4688 35.2339C24.4688 37.8543 25.5527 40.2215 27.2967 41.9115L21.4044 50.861C20.5228 50.5648 19.5789 50.4043 18.5976 50.4043ZM39.1458 35.4386C39.1483 35.3707 39.1496 35.3025 39.1496 35.2339C39.1496 32.261 36.7396 29.8509 33.7666 29.8509C30.7937 29.8509 28.3836 32.261 28.3836 35.2339C28.3836 38.2068 30.7937 40.6169 33.7666 40.6169C36.4031 40.6169 38.5968 38.7215 39.0597 36.2191C39.0483 36.0944 39.0488 35.9668 39.0622 35.8376C39.0765 35.6993 39.1049 35.5659 39.1458 35.4386ZM56.7665 38.1704C56.7665 35.0681 59.0824 32.7875 61.6601 32.7875C64.2377 32.7875 66.5537 35.0681 66.5537 38.1704C66.5537 41.2728 64.2377 43.5534 61.6601 43.5534C59.0824 43.5534 56.7665 41.2728 56.7665 38.1704ZM80.7432 12.2342C77.6409 12.2342 75.3602 14.5502 75.3602 17.1278C75.3602 19.7055 77.6409 22.0215 80.7432 22.0215C83.8455 22.0215 86.1262 19.7055 86.1262 17.1278C86.1262 14.5502 83.8455 12.2342 80.7432 12.2342Z" fill="white"/>
</g>
</svg>
