<svg width="84" height="83" viewBox="0 0 84 83" fill="none" xmlns="http://www.w3.org/2000/svg">
<path id="Union" fill-rule="evenodd" clip-rule="evenodd" d="M13.1481 47.1973C14.3098 44.8531 15.5075 42.6181 16.7363 40.4878L1.95079 35.9022C-0.0591644 35.2788 -0.667324 32.7302 0.844579 31.2664L12.8265 19.6659C17.4285 15.2104 24.2518 13.9452 30.1452 16.4547L34.2056 18.1837C50.8701 2.7422 68.8356 -0.754333 79.77 0.125945C82.2588 0.326302 83.9932 2.50557 83.8571 4.90334C82.8165 23.2341 74.7763 37.7989 64.9166 48.6709L66.5307 52.3951C69.0712 58.257 67.8633 65.0696 63.4623 69.7007L51.9209 81.8456C50.4861 83.3554 47.9609 82.8011 47.2904 80.8291L42.4502 66.5938C39.928 68.0215 37.5367 69.2062 35.3657 70.1489C33.5382 70.9425 31.4787 70.4543 30.1345 69.0861L14.0326 52.6966C12.6067 51.2453 12.2397 49.0304 13.1481 47.1973ZM32.0358 20.2704C27.2099 25.0849 22.5258 30.945 18.1905 38.0387L2.77133 33.2565L14.7532 21.656C18.5549 17.9754 24.1915 16.9302 29.06 19.0033L32.0358 20.2704ZM44.8886 65.1606C50.697 61.6206 57.0182 56.8616 62.8506 50.8695L63.9892 53.4966C66.0878 58.339 65.09 63.9668 61.4544 67.7925L49.9129 79.9374L44.8886 65.1606ZM79.5478 2.887C64.7906 1.69897 35.1423 9.05266 15.63 48.4273C15.2504 49.1933 15.4015 50.1375 16.0085 50.7553L32.1104 67.1448C32.7039 67.7488 33.5538 67.9159 34.2624 67.6081C50.5425 60.5386 79.1097 39.6565 81.0916 4.74634C81.1479 3.75458 80.4431 2.95908 79.5478 2.887ZM11.3607 58.2227C11.9848 58.6648 12.1324 59.5292 11.6903 60.1534C10.8029 61.4062 9.32053 63.9512 8.13313 67.1329C7.02346 70.1063 6.2023 73.5537 6.31119 76.9717C9.72155 76.6885 16.5739 75.067 22.6452 71.3308C23.2967 70.9299 24.1498 71.133 24.5506 71.7845C24.9515 72.4359 24.7484 73.289 24.097 73.6899C17.1326 77.9756 9.20714 79.6833 5.65801 79.7827C4.54494 79.8139 3.6614 78.9528 3.58583 77.8977C3.28594 73.711 4.26807 69.5672 5.53798 66.1644C6.80903 62.7586 8.40387 60.0009 9.42991 58.5523C9.87204 57.9281 10.7365 57.7806 11.3607 58.2227ZM51.0671 24.7282C51.0671 20.9036 54.1675 17.8032 57.9921 17.8032C61.8167 17.8032 64.9171 20.9036 64.9171 24.7282C64.9171 28.5527 61.8167 31.6531 57.9921 31.6531C54.1675 31.6531 51.0671 28.5527 51.0671 24.7282ZM57.9921 15.0332C52.6377 15.0332 48.2971 19.3738 48.2971 24.7282C48.2971 30.0826 52.6377 34.4231 57.9921 34.4231C63.3465 34.4231 67.6871 30.0826 67.6871 24.7282C67.6871 19.3738 63.3465 15.0332 57.9921 15.0332Z" fill="white"/>
</svg>
