<svg width="1160" height="476" viewBox="0 0 1160 476" fill="none" xmlns="http://www.w3.org/2000/svg">
<path d="M307.167 472H246.645V360.77H0.628906V311.697L188.739 4.17773H252.206L63.7686 311.697H246.645V145.506H307.167V311.697L355.585 336.561V360.77H307.167V472ZM445.901 236.78C445.901 363.06 492.029 426.199 584.285 426.199C674.142 426.199 719.07 363.06 719.07 236.78C719.07 112.246 674.142 49.9785 584.285 49.9785C492.029 49.9785 445.901 112.246 445.901 236.78ZM382.107 238.743C382.107 80.1852 449.5 0.90625 584.285 0.90625C716.671 0.90625 782.864 80.1852 782.864 238.743C782.864 396.429 716.671 475.271 584.285 475.271C449.5 475.271 382.107 396.429 382.107 238.743ZM1111.34 472H1050.82V360.77H804.807V311.697L992.917 4.17773H1056.38L867.946 311.697H1050.82V145.506H1111.34V311.697L1159.76 336.561V360.77H1111.34V472Z" fill="url(#paint0_linear_507_753)"/>
<defs>
<linearGradient id="paint0_linear_507_753" x1="583.5" y1="1" x2="583.5" y2="472" gradientUnits="userSpaceOnUse">
<stop stop-color="white"/>
<stop offset="1" stop-color="#999999"/>
</linearGradient>
</defs>
</svg>
