<svg width="98" height="87" viewBox="0 0 98 87" fill="none" xmlns="http://www.w3.org/2000/svg">
<g id="Group 39777">
<g id="Group">
<path id="Vector" d="M97.8993 58.1278V43.3602L65.0358 43.338L53.6769 36.7326C51.0743 35.2202 46.5087 35.3981 43.5091 37.1551L32.9221 43.3157L0.0365536 43.2935V58.4837C-0.0296146 59.5067 0.521787 60.5076 1.77898 61.2415L44.2369 85.9728C46.8395 87.4852 51.4051 87.3073 54.4047 85.5503L95.407 61.6863C97.1494 60.641 97.9875 59.3288 97.8993 58.1278Z" fill="url(#paint0_linear_45_876)"/>
<path id="Vector_2" d="M48.9569 35.6875C47.0601 35.732 45.075 36.2213 43.509 37.1331L32.9221 43.2937H0.0365536V58.4839C-0.0296146 59.507 0.521787 60.5078 1.77898 61.2417L44.2369 85.9731C45.4941 86.707 47.1924 87.0406 48.9569 86.9961V35.6875Z" fill="url(#paint1_linear_45_876)"/>
<path id="Vector_3" d="M3.73668 43.2938H0.00920985V58.484C-0.0569583 59.5071 0.494443 60.5079 1.75164 61.2418L3.73668 62.3983V43.2938Z" fill="url(#paint2_linear_45_876)"/>
<path id="Vector_4" d="M44.8945 86.2845C47.1442 87.2631 50.3865 87.1964 53.0332 86.1956V68.937H44.8945V86.2845Z" fill="url(#paint3_linear_45_876)"/>
<path id="Vector_5" d="M44.2292 70.805L1.77127 46.0959C-0.831347 44.5836 -0.500506 41.937 2.49912 40.18L43.5013 16.2938C46.501 14.5368 51.0666 14.3589 53.6692 15.8712L96.1271 40.6026C98.7297 42.1149 98.3989 44.7615 95.3992 46.5185L54.397 70.3825C51.3974 72.1395 46.8318 72.3396 44.2292 70.805Z" fill="#D4ECFF"/>
<path id="Vector_6" d="M95.4209 43.605L54.3966 67.4912C51.397 69.2482 46.8314 69.4261 44.2287 67.9137L1.77083 43.1824C1.19737 42.8488 0.75625 42.4485 0.469521 42.0259C-0.434778 43.4715 -0.0157124 45.0506 1.77083 46.0959L44.2287 70.8272C46.8314 72.3396 51.397 72.1616 54.3966 70.4047L95.3988 46.5407C97.7367 45.184 98.4425 43.2714 97.428 41.7812C97.0309 42.4262 96.3472 43.0712 95.4209 43.605Z" fill="white"/>
<g id="Group_2">
<path id="Vector_7" d="M82.2767 62.0192C82.2767 63.1313 81.5047 64.4657 80.5563 65.0217C79.6079 65.5777 78.8359 65.1329 78.8359 64.0209C78.8359 62.9089 79.6079 61.5744 80.5563 61.0184C81.5047 60.4624 82.2767 60.9072 82.2767 62.0192Z" fill="#D4ECFF"/>
<path id="Vector_8" d="M87.7923 58.8173C87.7923 59.9294 87.0203 61.2638 86.0719 61.8198C85.1235 62.3758 84.3516 61.931 84.3516 60.819C84.3516 59.707 85.1235 58.3725 86.0719 57.8165C87.0203 57.2605 87.7923 57.7053 87.7923 58.8173Z" fill="#D4ECFF"/>
<path id="Vector_9" d="M93.304 55.5922C93.304 56.7043 92.5321 58.0387 91.5837 58.5947C90.6352 59.1507 89.8633 58.7059 89.8633 57.5939C89.8633 56.4819 90.6352 55.1474 91.5837 54.5914C92.5321 54.0354 93.304 54.4802 93.304 55.5922Z" fill="#D4ECFF"/>
</g>
<g id="Group_3">
<path id="Vector_10" d="M46.7501 55.4809L26.8776 43.9159C25.6645 43.2042 25.8189 41.9588 27.2085 41.1359L46.3972 29.9712C47.8088 29.1483 49.9262 29.0593 51.1613 29.771L71.0339 41.336C72.2469 42.0477 72.0925 43.2932 70.703 44.1161L51.5142 55.2808C50.1027 56.1037 47.9632 56.1926 46.7501 55.4809Z" fill="url(#paint4_linear_45_876)"/>
<path id="Vector_11" d="M48.6501 45.8059L45.8931 44.2046C45.7166 44.1156 45.7387 43.9377 45.9372 43.8265L48.5839 42.2697C48.7824 42.1585 49.0692 42.1362 49.2456 42.2474L52.0026 43.8487C52.1791 43.9377 52.157 44.1156 51.9585 44.2268L49.3118 45.7614C49.1133 45.8949 48.8265 45.8949 48.6501 45.8059Z" fill="#D4ECFF"/>
<path id="Vector_12" d="M26.8756 43.9159L26.9417 43.9382C27.03 43.8714 27.1182 43.8047 27.2285 43.738L46.4172 32.5733C47.8288 31.7504 49.9462 31.6615 51.1814 32.3731L70.9877 43.9159C72.1126 43.1153 72.1787 42.0032 71.0539 41.336L51.1814 29.771C49.9683 29.0593 47.8288 29.1483 46.4172 29.9712L27.2285 41.1359C25.8169 41.9588 25.6625 43.2042 26.8756 43.9159Z" fill="url(#paint5_linear_45_876)"/>
</g>
</g>
<g id="Group_4">
<path id="Vector_13" d="M97.8954 43.2816V28.514L65.0319 28.4918L53.673 21.8864C51.0704 20.374 46.5048 20.552 43.5051 22.3089L32.9182 28.4695L0.0326473 28.4473V43.6375C-0.0335208 44.6606 0.517881 45.6614 1.77508 46.3953L44.233 71.1266C46.8356 72.639 51.4012 72.4611 54.4008 70.7041L95.4031 46.8401C97.1455 45.7948 97.9836 44.4826 97.8954 43.2816Z" fill="url(#paint6_linear_45_876)"/>
<path id="Vector_14" d="M48.953 20.8413C47.0562 20.8858 45.0711 21.3751 43.5051 22.2869L32.9182 28.4475H0.0326473V43.6377C-0.0335208 44.6608 0.517881 45.6616 1.77508 46.3955L44.233 71.1269C45.4902 71.8608 47.1885 72.1944 48.953 72.1499V20.8413Z" fill="url(#paint7_linear_45_876)"/>
<path id="Vector_15" d="M3.73278 28.4476H0.0053036V43.6378C-0.0608646 44.6609 0.490537 45.6617 1.74773 46.3956L3.73278 47.5521V28.4476Z" fill="url(#paint8_linear_45_876)"/>
<path id="Vector_16" d="M44.8906 71.4383C47.1403 72.4169 50.3826 72.3502 53.0293 71.3494V54.0908H44.8906V71.4383Z" fill="url(#paint9_linear_45_876)"/>
<path id="Vector_17" d="M44.2253 55.9588L1.76736 31.2498C-0.835253 29.7374 -0.504412 27.0908 2.49521 25.3338L43.4974 1.44762C46.497 -0.309377 51.0627 -0.4873 53.6653 1.02505L96.1232 25.7564C98.7258 27.2687 98.395 29.9153 95.3953 31.6723L54.3931 55.5363C51.3935 57.2933 46.8279 57.4934 44.2253 55.9588Z" fill="#D4ECFF"/>
<path id="Vector_18" d="M95.4169 28.7588L54.3927 52.645C51.3931 54.402 46.8274 54.5799 44.2248 53.0675L1.76692 28.3362C1.19346 28.0026 0.752343 27.6023 0.465615 27.1797C-0.438684 28.6253 -0.0196186 30.2044 1.76692 31.2497L44.2248 55.981C46.8274 57.4934 51.3931 57.3155 54.3927 55.5585L95.3949 31.6945C97.7328 30.3378 98.4386 28.4252 97.424 26.9351C97.027 27.58 96.3433 28.225 95.4169 28.7588Z" fill="white"/>
<g id="Group_5">
<path id="Vector_19" d="M82.2728 47.1727C82.2728 48.2847 81.5008 49.6191 80.5524 50.1751C79.604 50.7311 78.832 50.2863 78.832 49.1743C78.832 48.0623 79.604 46.7279 80.5524 46.1719C81.5008 45.6159 82.2728 46.0607 82.2728 47.1727Z" fill="#D4ECFF"/>
<path id="Vector_20" d="M87.7884 43.9707C87.7884 45.0827 87.0164 46.4171 86.068 46.9731C85.1196 47.5291 84.3477 47.0843 84.3477 45.9723C84.3477 44.8603 85.1196 43.5258 86.068 42.9698C87.0164 42.4138 87.7884 42.8586 87.7884 43.9707Z" fill="#D4ECFF"/>
<path id="Vector_21" d="M93.3001 40.746C93.3001 41.8581 92.5282 43.1925 91.5797 43.7485C90.6313 44.3045 89.8594 43.8597 89.8594 42.7477C89.8594 41.6357 90.6313 40.3012 91.5797 39.7452C92.5282 39.1892 93.3001 39.634 93.3001 40.746Z" fill="#D4ECFF"/>
</g>
<g id="Group_6">
<path id="Vector_22" d="M46.7462 40.6347L26.8737 29.0697C25.6606 28.358 25.815 27.1126 27.2046 26.2897L46.3933 15.125C47.8049 14.3021 49.9223 14.2131 51.1574 14.9248L71.0299 26.4898C72.243 27.2015 72.0886 28.447 70.6991 29.2699L51.5103 40.4346C50.0987 41.2575 47.9593 41.3464 46.7462 40.6347Z" fill="url(#paint10_linear_45_876)"/>
<path id="Vector_23" d="M48.6462 30.9597L45.8892 29.3584C45.7127 29.2694 45.7348 29.0915 45.9333 28.9803L48.58 27.4235C48.7785 27.3123 49.0652 27.29 49.2417 27.4012L51.9987 29.0025C52.1752 29.0915 52.1531 29.2694 51.9546 29.3806L49.3079 30.9152C49.1094 31.0487 48.8226 31.0487 48.6462 30.9597Z" fill="#D4ECFF"/>
<path id="Vector_24" d="M26.8717 29.0697L26.9378 29.092C27.0261 29.0252 27.1143 28.9585 27.2246 28.8918L46.4133 17.7271C47.8249 16.9042 49.9423 16.8153 51.1774 17.527L70.9838 29.0697C72.1087 28.2691 72.1748 27.157 71.05 26.4898L51.1774 14.9248C49.9644 14.2131 47.8249 14.3021 46.4133 15.125L27.2246 26.2897C25.813 27.1126 25.6586 28.358 26.8717 29.0697Z" fill="url(#paint11_linear_45_876)"/>
</g>
</g>
</g>
<defs>
<linearGradient id="paint0_linear_45_876" x1="42.5267" y1="56.372" x2="86.7258" y2="33.5295" gradientUnits="userSpaceOnUse">
<stop stop-color="#3E5FAA"/>
<stop offset="1" stop-color="#301466"/>
</linearGradient>
<linearGradient id="paint1_linear_45_876" x1="53.047" y1="64.7388" x2="7.22657" y2="38.2432" gradientUnits="userSpaceOnUse">
<stop stop-color="#3E5FAA"/>
<stop offset="1" stop-color="#301466"/>
</linearGradient>
<linearGradient id="paint2_linear_45_876" x1="1.88045" y1="43.9699" x2="1.88045" y2="72.4308" gradientUnits="userSpaceOnUse">
<stop stop-color="#3E5FAA"/>
<stop offset="1" stop-color="#301466"/>
</linearGradient>
<linearGradient id="paint3_linear_45_876" x1="48.9579" y1="68.4691" x2="48.9579" y2="95.7959" gradientUnits="userSpaceOnUse">
<stop stop-color="#3E5FAA"/>
<stop offset="1" stop-color="#301466"/>
</linearGradient>
<linearGradient id="paint4_linear_45_876" x1="26.0563" y1="42.6313" x2="71.8665" y2="42.6313" gradientUnits="userSpaceOnUse">
<stop stop-color="#3E5FAA"/>
<stop offset="1" stop-color="#301466"/>
</linearGradient>
<linearGradient id="paint5_linear_45_876" x1="68.1888" y1="36.6231" x2="12.8936" y2="36.6231" gradientUnits="userSpaceOnUse">
<stop stop-color="#3E5FAA"/>
<stop offset="1" stop-color="#301466"/>
</linearGradient>
<linearGradient id="paint6_linear_45_876" x1="42.5228" y1="41.5258" x2="86.7219" y2="18.6833" gradientUnits="userSpaceOnUse">
<stop stop-color="#3E5FAA"/>
<stop offset="1" stop-color="#301466"/>
</linearGradient>
<linearGradient id="paint7_linear_45_876" x1="53.0431" y1="49.8926" x2="7.22266" y2="23.397" gradientUnits="userSpaceOnUse">
<stop stop-color="#3E5FAA"/>
<stop offset="1" stop-color="#301466"/>
</linearGradient>
<linearGradient id="paint8_linear_45_876" x1="1.87654" y1="29.1237" x2="1.87654" y2="57.5846" gradientUnits="userSpaceOnUse">
<stop stop-color="#3E5FAA"/>
<stop offset="1" stop-color="#301466"/>
</linearGradient>
<linearGradient id="paint9_linear_45_876" x1="48.954" y1="53.6229" x2="48.954" y2="80.9497" gradientUnits="userSpaceOnUse">
<stop stop-color="#3E5FAA"/>
<stop offset="1" stop-color="#301466"/>
</linearGradient>
<linearGradient id="paint10_linear_45_876" x1="26.0523" y1="27.7851" x2="71.8626" y2="27.7851" gradientUnits="userSpaceOnUse">
<stop stop-color="#3E5FAA"/>
<stop offset="1" stop-color="#301466"/>
</linearGradient>
<linearGradient id="paint11_linear_45_876" x1="68.1849" y1="21.7769" x2="12.8897" y2="21.7769" gradientUnits="userSpaceOnUse">
<stop stop-color="#3E5FAA"/>
<stop offset="1" stop-color="#301466"/>
</linearGradient>
</defs>
</svg>
