<svg width="194" height="68" viewBox="0 0 194 68" fill="none" xmlns="http://www.w3.org/2000/svg">
<g id="Group 39776">
<g id="_x31_6_4_">
<g id="_x31_6_5_">
<g id="Group">
<g id="Group_2">
<path id="Vector" d="M14.7683 65.4618L14.7907 36.6574L0.0224101 28.3813L0 57.2073C0 58.3309 0.425793 59.1304 1.07569 59.4978L15.844 67.7739C15.1717 67.3849 14.7683 66.607 14.7683 65.4618Z" fill="url(#paint0_linear_45_907)"/>
<path id="Vector_2" d="M45.3607 0.246741C44.6884 -0.142214 43.7472 -0.0773886 42.7163 0.484436L3.72266 22.2011L18.4909 30.4772L57.4846 8.76054C58.5155 8.19872 59.4567 8.13389 60.129 8.52284L45.3607 0.246741Z" fill="url(#paint1_linear_45_907)"/>
<g id="Group_3">
<g id="Group_4">
<path id="Vector_3" d="M14.7683 36.6573L0 28.3812C0 26.1123 1.63594 23.3464 3.69767 22.2012L18.466 30.4773C16.4266 31.6225 14.7683 34.3884 14.7683 36.6573Z" fill="#99AAB5"/>
</g>
</g>
<path id="Vector_4" d="M57.4794 8.76074L18.4633 30.4774C16.4016 31.6227 14.7656 34.3886 14.7656 36.6575V65.4618C14.7656 67.7307 16.4464 68.6598 18.4857 67.5146L57.4794 45.7979C59.5187 44.6527 61.177 41.8868 61.177 39.6179L61.1994 10.8136C61.1994 8.54465 59.5187 7.63709 57.4794 8.76074Z" fill="#D4ECFF"/>
</g>
</g>
<g id="_x31_6_6_">
<g id="Group_5">
<g id="Group_6">
<path id="Vector_5" d="M50.154 20.709C49.5041 20.3417 48.787 20.1256 47.9803 20.0391C46.9494 19.9311 45.8065 20.0824 44.5963 20.4929C43.9913 20.709 43.3638 20.9683 42.7139 21.314C41.9071 21.7462 41.1003 22.2864 40.3384 22.8915C38.1198 24.6418 36.1477 27.0187 34.6686 29.6334C34.1084 30.6058 33.6378 31.6214 33.2344 32.637C32.6741 34.0415 32.2707 35.4461 32.0466 36.8506C31.9346 37.6069 31.8674 38.3416 31.845 39.0763C31.8001 42.4473 33.0103 44.8026 34.96 45.9047L41.3693 49.5133C39.3972 48.4113 38.2094 46.0343 38.2543 42.685C38.2543 41.9503 38.3215 41.2156 38.4559 40.4593C38.68 39.0763 39.0834 37.6502 39.6437 36.2456C40.0471 35.23 40.5401 34.2144 41.0779 33.242C42.557 30.6274 44.5291 28.2504 46.7477 26.5001C47.5096 25.8951 48.3164 25.3765 49.1232 24.9227C49.7731 24.5769 50.4006 24.296 51.0056 24.1016C52.2158 23.691 53.3587 23.5397 54.3896 23.6478C55.1739 23.7342 55.9135 23.9503 56.5633 24.3176L50.154 20.709Z" fill="#301466"/>
<g id="Group_7">
<path id="Vector_6" d="M49.1202 24.9443C55.0365 21.7678 59.765 24.5553 59.6754 31.1676C59.5857 37.7798 54.7227 45.7318 48.8064 48.9083C42.8902 52.0847 38.1616 49.2972 38.2513 42.685C38.3409 36.0511 43.2039 28.1208 49.1202 24.9443Z" fill="#291B2A"/>
</g>
</g>
<path id="Vector_7" d="M49.097 25.7867C54.5875 22.8263 58.9799 25.4193 58.9127 31.5562C58.8455 37.693 54.3186 45.0616 48.8281 48.022C43.3376 50.9824 38.9452 48.3893 39.0125 42.2525C39.1021 36.1156 43.6066 28.7471 49.097 25.7867Z" fill="#291B2A"/>
<g id="Group_8">
<g id="Clip path group">
<mask id="mask0_45_907" style="mask-type:luminance" maskUnits="userSpaceOnUse" x="40" y="26" width="18" height="22">
<g id="SVGID_4_">
<path id="Vector_8" d="M49.0659 27.6889C53.6376 25.2471 57.268 27.3864 57.2008 32.486C57.1336 37.5856 53.3911 43.7009 48.8194 46.1643C44.2477 48.606 40.6173 46.4668 40.6845 41.3672C40.7517 36.2459 44.5166 30.1307 49.0659 27.6889Z" fill="white"/>
</g>
</mask>
<g mask="url(#mask0_45_907)">
<g id="_x30__1_">
<path id="Vector_9" opacity="0.5" d="M47.2012 25.7874C42.1589 28.5965 38.1027 35.3816 38.1251 40.9566C38.1475 46.5317 42.2261 48.8006 47.2684 45.9914C52.3107 43.1823 56.367 36.3972 56.367 30.8006C56.3221 25.2472 52.2211 22.9999 47.2012 25.7874Z" fill="#412B42"/>
<path id="Vector_10" d="M47.2002 27.3002C42.9199 29.6772 39.4688 35.4683 39.4688 40.2006C39.4912 44.9545 42.9647 46.856 47.2451 44.4791C51.5254 42.1021 54.999 36.311 54.9766 31.5571C54.9766 26.8248 51.4806 24.9233 47.2002 27.3002Z" fill="#291B2A"/>
<g id="Group_9">
<path id="Vector_11" opacity="0.1" d="M46.9059 30.2388C44.1495 31.773 41.9309 35.468 41.9533 38.5149C41.9533 41.5617 44.1943 42.7934 46.9508 41.2592C49.7072 39.7249 51.9258 36.0299 51.9034 32.9831C51.881 29.9362 49.6624 28.7045 46.9059 30.2388Z" fill="#A567A5"/>
<path id="Vector_12" opacity="0.3" d="M47.1502 32.7231C45.6487 33.5443 44.4609 35.5755 44.4609 37.2177C44.4609 38.8816 45.6711 39.5298 47.1726 38.7087C48.674 37.8876 49.8618 35.8564 49.8618 34.2141C49.8618 32.5503 48.6292 31.8804 47.1502 32.7231Z" fill="#FDC5FF"/>
<path id="Vector_13" opacity="0.3" d="M46.729 33.761C46.1688 34.0635 45.7206 34.8198 45.743 35.4248C45.743 36.0299 46.1912 36.2892 46.7515 35.9866C47.3117 35.6841 47.7599 34.9278 47.7375 34.3228C47.7151 33.6961 47.2669 33.4584 46.729 33.761Z" fill="#FDCFFF"/>
</g>
<path id="Vector_14" opacity="0.2" d="M47.2012 25.7874C42.1589 28.5965 38.1027 35.3816 38.1251 40.9566C38.1475 46.5317 42.2261 48.8006 47.2684 45.9914C52.3107 43.1823 56.367 36.3972 56.367 30.8006C56.3221 25.2472 52.2211 22.9999 47.2012 25.7874Z" fill="url(#paint2_linear_45_907)"/>
</g>
</g>
</g>
</g>
</g>
<path id="Vector_15" d="M41.1203 14.0752L17.5225 27.2781L8.46875 22.2433L32.0666 9.04041L41.1203 14.0752Z" fill="#412B42"/>
<path id="Vector_16" opacity="0.5" d="M32.0666 9.86153L40.3808 14.4858L41.1203 14.0752L32.0666 9.04041L8.46875 22.2433L9.20829 22.6538L32.0666 9.86153Z" fill="#412B42"/>
<g id="Group_10">
<g id="Group_11">
<path id="Vector_17" d="M28.0031 44.5435C28.0031 46.7043 26.1879 49.4702 23.9469 50.7235C21.7058 51.9768 19.8906 51.2205 19.8906 49.0597C19.8906 46.8988 21.7058 44.1329 23.9469 42.8796C26.1879 41.6479 28.0031 42.3826 28.0031 44.5435Z" fill="#412B42"/>
<path id="Vector_18" d="M27.9317 45.2995C27.9317 47.1146 26.4078 49.4483 24.503 50.5072C22.6205 51.566 21.0742 50.9393 21.0742 49.1026C21.0742 47.2875 22.5981 44.9537 24.503 43.8949C26.3854 42.8577 27.9317 43.4844 27.9317 45.2995Z" fill="#301466"/>
</g>
<path id="Vector_19" d="M24.8185 44.0672C23.1826 44.8883 21.8828 46.7251 21.8828 48.1512C21.8828 49.5774 23.205 50.0744 24.8185 49.2533C26.4545 48.4321 27.7543 46.5954 27.7543 45.1692C27.7543 43.7431 26.4321 43.2461 24.8185 44.0672Z" fill="url(#paint3_linear_45_907)"/>
</g>
<g id="Group_12">
<g id="Group_13">
<g id="Group_14">
<path id="Vector_20" d="M47.5829 7.15976C45.5212 8.32663 42.1372 8.32663 40.0531 7.15976C38.9998 6.57633 38.4844 5.79842 38.4844 5.04211V7.72158C38.4844 8.47789 38.9998 9.2558 40.0531 9.83923C42.1372 11.0061 45.5212 11.0061 47.5829 9.83923C48.6138 9.2558 49.1292 8.49949 49.1292 7.74319V5.06372C49.1292 5.82002 48.6138 6.57633 47.5829 7.15976Z" fill="url(#paint4_linear_45_907)"/>
</g>
<path id="Vector_21" d="M47.5577 2.94644C45.4736 1.77957 42.0896 1.77957 40.0279 2.94644C37.9662 4.1133 37.9661 5.99325 40.0503 7.16012C42.1344 8.32699 45.5184 8.32699 47.5801 7.16012C49.6642 5.99325 49.6418 4.1133 47.5577 2.94644Z" fill="#FFD8FF"/>
</g>
</g>
<path id="Vector_22" d="M46.5216 6.46922C45.8044 6.85818 44.8632 7.09587 43.8547 7.09587C42.8463 7.09587 41.8827 6.87979 41.1655 6.46922C40.4708 6.08027 40.0898 5.58327 40.0898 5.04305C40.0898 4.50284 40.4708 4.00584 41.1431 3.61688C41.8602 3.22793 42.8015 2.99023 43.8099 2.99023C44.8184 2.99023 45.782 3.20632 46.4991 3.61688C47.1939 4.00584 47.5748 4.50284 47.5748 5.04305C47.5748 5.58327 47.1939 6.10188 46.5216 6.46922Z" fill="#412B42"/>
</g>
<path id="Vector_23" opacity="0.5" d="M19.3177 24.4267L20.0797 24.8588L18.7799 25.5935L18.0179 25.1614L19.3177 24.4267ZM16.5837 26.0905L17.1215 26.3931L17.3008 26.285L16.763 25.9825L16.5837 26.0905ZM16.4492 25.7016L17.8386 26.4795L20.7296 24.8805L19.3401 24.1025L16.4492 25.7016ZM20.483 24.8588L17.8386 26.3282L16.6957 25.68L19.3401 24.2106L20.483 24.8588Z" fill="#412B42"/>
</g>
<path id="Vector_24" opacity="0.5" d="M31.4614 11.0722L31.8871 10.8345L37.1087 13.73L36.6829 13.9677L31.4614 11.0722ZM31.9096 13.233L32.3353 12.9737L30.184 11.7636L29.7582 12.0013L31.9096 13.233ZM30.2064 14.1622L30.6322 13.9245L28.4808 12.7144L28.055 12.9737L30.2064 14.1622ZM31.5734 16.8201L31.9992 16.5824L26.7776 13.6868L26.3518 13.9245L31.5734 16.8201ZM26.8 16.0638L27.2258 15.8261L25.0745 14.616L24.6487 14.8753L26.8 16.0638ZM25.0969 17.0145L25.5227 16.7768L23.3713 15.5668L22.9455 15.8045L25.0969 17.0145ZM26.4639 19.6724L26.8897 19.4347L21.6681 16.5175L21.2423 16.7552L26.4639 19.6724ZM21.6905 18.9161L22.1163 18.6784L19.9649 17.4683L19.5392 17.706L21.6905 18.9161ZM19.9874 19.8669L20.4131 19.6292L18.2618 18.4191L17.836 18.6568L19.9874 19.8669ZM21.332 22.5247L21.7578 22.287L16.5586 19.3699L16.1328 19.6076L21.332 22.5247Z" fill="#412B42"/>
<g id="Group_15">
<g id="Group_16">
<path id="Vector_25" opacity="0.5" d="M59.0693 11.6122C59.0693 12.1957 58.5763 12.9304 57.9937 13.2545C57.3886 13.5786 56.918 13.3841 56.918 12.8223C56.918 12.2389 57.411 11.5042 57.9937 11.1801C58.5987 10.8343 59.0693 11.0288 59.0693 11.6122Z" fill="#8983BC"/>
<g id="Clip path group_2">
<mask id="mask1_45_907" style="mask-type:luminance" maskUnits="userSpaceOnUse" x="56" y="11" width="4" height="3">
<g id="SVGID_9_">
<path id="Vector_26" d="M59.0654 11.6132C59.0654 12.1966 58.5724 12.9313 57.9897 13.2555C57.3847 13.5796 56.9141 13.3851 56.9141 12.8233C56.9141 12.2399 57.4071 11.5052 57.9897 11.181C58.5948 10.8353 59.0654 11.0298 59.0654 11.6132Z" fill="white"/>
</g>
</mask>
<g mask="url(#mask1_45_907)">
<path id="Vector_27" d="M57.2521 13.0822C56.9383 13.0822 56.8711 12.8013 56.8711 12.6501C56.8711 12.1315 57.3193 11.44 57.8796 11.1375C58.0364 11.051 58.1933 11.0078 58.3278 11.0078C58.6415 11.0078 58.7087 11.2887 58.7087 11.44C58.7087 11.9586 58.2605 12.6501 57.7003 12.9526C57.5434 13.039 57.3865 13.0822 57.2521 13.0822Z" fill="#FAF9FF"/>
</g>
</g>
</g>
</g>
</g>
<g id="_x31_6_4__2">
<g id="_x31_6_5__2">
<g id="Group_17">
<g id="Group_18">
<path id="Vector_28" d="M80.7331 65.4618L80.7555 36.6574L65.9873 28.3813L65.9648 57.2073C65.9648 58.3309 66.3906 59.1304 67.0405 59.4978L81.8088 67.7739C81.1365 67.3849 80.7331 66.607 80.7331 65.4618Z" fill="url(#paint5_linear_45_907)"/>
<path id="Vector_29" d="M111.326 0.246741C110.653 -0.142214 109.712 -0.0773886 108.681 0.484436L69.6875 22.2011L84.4558 30.4772L123.449 8.76054C124.48 8.19872 125.422 8.13389 126.094 8.52284L111.326 0.246741Z" fill="url(#paint6_linear_45_907)"/>
<g id="Group_19">
<g id="Group_20">
<path id="Vector_30" d="M80.7331 36.6573L65.9648 28.3812C65.9648 26.1123 67.6008 23.3464 69.6625 22.2012L84.4308 30.4773C82.3915 31.6225 80.7331 34.3884 80.7331 36.6573Z" fill="#99AAB5"/>
</g>
</g>
<path id="Vector_31" d="M123.444 8.76074L84.4281 30.4774C82.3664 31.6227 80.7305 34.3886 80.7305 36.6575V65.4618C80.7305 67.7307 82.4112 68.6598 84.4506 67.5146L123.444 45.7979C125.484 44.6527 127.142 41.8868 127.142 39.6179L127.164 10.8136C127.164 8.54465 125.484 7.63709 123.444 8.76074Z" fill="#D4ECFF"/>
</g>
</g>
<g id="_x31_6_6__2">
<g id="Group_21">
<g id="Group_22">
<path id="Vector_32" d="M116.115 20.709C115.465 20.3417 114.748 20.1256 113.941 20.0391C112.91 19.9311 111.767 20.0824 110.557 20.4929C109.952 20.709 109.325 20.9683 108.675 21.314C107.868 21.7462 107.061 22.2864 106.299 22.8915C104.081 24.6418 102.109 27.0187 100.63 29.6334C100.069 30.6058 99.5987 31.6214 99.1953 32.637C98.6351 34.0415 98.2317 35.4461 98.0076 36.8506C97.8955 37.6069 97.8283 38.3416 97.8059 39.0763C97.7611 42.4473 98.9712 44.8026 100.921 45.9047L107.33 49.5133C105.358 48.4113 104.17 46.0343 104.215 42.685C104.215 41.9503 104.282 41.2156 104.417 40.4593C104.641 39.0763 105.044 37.6502 105.605 36.2456C106.008 35.23 106.501 34.2144 107.039 33.242C108.518 30.6274 110.49 28.2504 112.709 26.5001C113.471 25.8951 114.277 25.3765 115.084 24.9227C115.734 24.5769 116.361 24.296 116.967 24.1016C118.177 23.691 119.32 23.5397 120.351 23.6478C121.135 23.7342 121.874 23.9503 122.524 24.3176L116.115 20.709Z" fill="#301466"/>
<g id="Group_23">
<path id="Vector_33" d="M115.081 24.9444C120.997 21.768 125.726 24.5555 125.636 31.1677C125.547 37.78 120.684 45.7319 114.767 48.9084C108.851 52.0849 104.123 49.2973 104.212 42.6851C104.302 36.0513 109.165 28.1209 115.081 24.9444Z" fill="#291B2A"/>
</g>
</g>
<path id="Vector_34" d="M115.062 25.7867C120.552 22.8263 124.945 25.4193 124.878 31.5562C124.81 37.693 120.283 45.0616 114.793 48.022C109.302 50.9824 104.91 48.3893 104.977 42.2525C105.067 36.1156 109.571 28.7471 115.062 25.7867Z" fill="#291B2A"/>
<g id="Group_24">
<g id="Clip path group_3">
<mask id="mask2_45_907" style="mask-type:luminance" maskUnits="userSpaceOnUse" x="106" y="26" width="18" height="22">
<g id="SVGID_4__2">
<path id="Vector_35" d="M115.035 27.6889C119.606 25.2471 123.237 27.3864 123.17 32.486C123.102 37.5856 119.36 43.7009 114.788 46.1643C110.216 48.606 106.586 46.4668 106.653 41.3672C106.72 36.2459 110.485 30.1307 115.035 27.6889Z" fill="white"/>
</g>
</mask>
<g mask="url(#mask2_45_907)">
<g id="_x30__1__2">
<path id="Vector_36" opacity="0.5" d="M113.17 25.7879C108.128 28.597 104.071 35.3821 104.094 40.9571C104.116 46.5321 108.195 48.801 113.237 45.9919C118.279 43.1828 122.336 36.3977 122.336 30.8011C122.291 25.2476 118.19 23.0003 113.17 25.7879Z" fill="#412B42"/>
<path id="Vector_37" d="M113.169 27.3007C108.889 29.6776 105.438 35.4688 105.438 40.2011C105.46 44.955 108.933 46.8565 113.214 44.4796C117.494 42.1026 120.968 36.3115 120.945 31.5576C120.945 26.8253 117.449 24.9238 113.169 27.3007Z" fill="#291B2A"/>
<g id="Group_25">
<path id="Vector_38" opacity="0.1" d="M112.875 30.2392C110.118 31.7735 107.9 35.4685 107.922 38.5154C107.922 41.5622 110.163 42.7939 112.92 41.2596C115.676 39.7254 117.895 36.0304 117.872 32.9835C117.85 29.9367 115.631 28.705 112.875 30.2392Z" fill="#A567A5"/>
<path id="Vector_39" opacity="0.3" d="M113.119 32.7236C111.617 33.5447 110.43 35.576 110.43 37.2182C110.43 38.8821 111.64 39.5303 113.141 38.7092C114.643 37.8881 115.831 35.8569 115.831 34.2146C115.831 32.5507 114.598 31.8809 113.119 32.7236Z" fill="#FDC5FF"/>
<path id="Vector_40" opacity="0.3" d="M112.698 33.7615C112.138 34.064 111.689 34.8203 111.712 35.4253C111.712 36.0304 112.16 36.2897 112.72 35.9871C113.28 35.6846 113.729 34.9283 113.706 34.3233C113.684 33.6966 113.236 33.4589 112.698 33.7615Z" fill="#FDCFFF"/>
</g>
<path id="Vector_41" opacity="0.2" d="M113.17 25.7879C108.128 28.597 104.071 35.3821 104.094 40.9571C104.116 46.5321 108.195 48.801 113.237 45.9919C118.279 43.1828 122.336 36.3977 122.336 30.8011C122.291 25.2476 118.19 23.0003 113.17 25.7879Z" fill="url(#paint7_linear_45_907)"/>
</g>
</g>
</g>
</g>
</g>
<path id="Vector_42" d="M107.085 14.0752L83.4873 27.2781L74.4336 22.2433L98.0315 9.04041L107.085 14.0752Z" fill="#412B42"/>
<path id="Vector_43" opacity="0.5" d="M98.0315 9.86153L106.346 14.4858L107.085 14.0752L98.0315 9.04041L74.4336 22.2433L75.1731 22.6538L98.0315 9.86153Z" fill="#412B42"/>
<g id="Group_26">
<g id="Group_27">
<path id="Vector_44" d="M93.9718 44.5435C93.9718 46.7043 92.1566 49.4702 89.9156 50.7235C87.6746 51.9768 85.8594 51.2205 85.8594 49.0597C85.8594 46.8988 87.6746 44.1329 89.9156 42.8796C92.1566 41.6479 93.9718 42.3826 93.9718 44.5435Z" fill="#412B42"/>
<path id="Vector_45" d="M93.9005 45.2995C93.9005 47.1146 92.3766 49.4483 90.4717 50.5072C88.5893 51.566 87.043 50.9393 87.043 49.1026C87.043 47.2875 88.5669 44.9537 90.4717 43.8949C92.3542 42.8577 93.9005 43.4844 93.9005 45.2995Z" fill="#301466"/>
</g>
<path id="Vector_46" d="M90.7873 44.0672C89.1513 44.8883 87.8516 46.7251 87.8516 48.1512C87.8516 49.5774 89.1738 50.0744 90.7873 49.2533C92.4232 48.4321 93.723 46.5954 93.723 45.1692C93.723 43.7431 92.4008 43.2461 90.7873 44.0672Z" fill="url(#paint8_linear_45_907)"/>
</g>
<g id="Group_28">
<g id="Group_29">
<g id="Group_30">
<path id="Vector_47" d="M113.552 7.15964C111.49 8.3265 108.106 8.3265 106.022 7.15964C104.969 6.5762 104.453 5.79829 104.453 5.04199V7.72146C104.453 8.47776 104.969 9.25567 106.022 9.83911C108.106 11.006 111.49 11.006 113.552 9.83911C114.583 9.25567 115.098 8.49937 115.098 7.74307V5.0636C115.098 5.8199 114.583 6.5762 113.552 7.15964Z" fill="url(#paint9_linear_45_907)"/>
</g>
<path id="Vector_48" d="M113.526 2.94644C111.442 1.77957 108.058 1.77957 105.997 2.94644C103.935 4.1133 103.935 5.99325 106.019 7.16012C108.103 8.32699 111.487 8.32699 113.549 7.16012C115.633 5.99325 115.611 4.1133 113.526 2.94644Z" fill="#FFD8FF"/>
</g>
</g>
<path id="Vector_49" d="M112.486 6.46922C111.769 6.85818 110.828 7.09587 109.82 7.09587C108.811 7.09587 107.848 6.87979 107.13 6.46922C106.436 6.08027 106.055 5.58327 106.055 5.04305C106.055 4.50284 106.436 4.00584 107.108 3.61688C107.825 3.22793 108.766 2.99023 109.775 2.99023C110.783 2.99023 111.747 3.20632 112.464 3.61688C113.159 4.00584 113.54 4.50284 113.54 5.04305C113.54 5.58327 113.159 6.10188 112.486 6.46922Z" fill="#412B42"/>
</g>
<path id="Vector_50" opacity="0.5" d="M85.2826 24.4267L86.0445 24.8588L84.7447 25.5935L83.9828 25.1614L85.2826 24.4267ZM82.5485 26.0905L83.0864 26.3931L83.2656 26.285L82.7278 25.9825L82.5485 26.0905ZM82.4141 25.7016L83.8035 26.4795L86.6944 24.8805L85.305 24.1025L82.4141 25.7016ZM86.4479 24.8588L83.8035 26.3282L82.6606 25.68L85.305 24.2106L86.4479 24.8588Z" fill="#412B42"/>
</g>
<path id="Vector_51" opacity="0.5" d="M97.4223 11.0722L97.8481 10.8345L103.07 13.73L102.644 13.9677L97.4223 11.0722ZM97.8705 13.233L98.2963 12.9737L96.1449 11.7636L95.7191 12.0013L97.8705 13.233ZM96.1673 14.1622L96.5931 13.9245L94.4417 12.7144L94.0159 12.9737L96.1673 14.1622ZM97.5343 16.8201L97.9601 16.5824L92.7386 13.6868L92.3128 13.9245L97.5343 16.8201ZM92.761 16.0638L93.1868 15.8261L91.0354 14.616L90.6096 14.8753L92.761 16.0638ZM91.0578 17.0145L91.4836 16.7768L89.3322 15.5668L88.9064 15.8045L91.0578 17.0145ZM92.4248 19.6724L92.8506 19.4347L87.6291 16.5175L87.2033 16.7552L92.4248 19.6724ZM87.6515 18.9161L88.0773 18.6784L85.9259 17.4683L85.5001 17.706L87.6515 18.9161ZM85.9483 19.8669L86.3741 19.6292L84.2227 18.4191L83.7969 18.6568L85.9483 19.8669ZM87.2929 22.5247L87.7187 22.287L82.5195 19.3699L82.0938 19.6076L87.2929 22.5247Z" fill="#412B42"/>
<g id="Group_31">
<g id="Group_32">
<path id="Vector_52" opacity="0.5" d="M125.034 11.6122C125.034 12.1957 124.541 12.9304 123.958 13.2545C123.353 13.5786 122.883 13.3841 122.883 12.8223C122.883 12.2389 123.376 11.5042 123.958 11.1801C124.564 10.8343 125.034 11.0288 125.034 11.6122Z" fill="#8983BC"/>
<g id="Clip path group_4">
<mask id="mask3_45_907" style="mask-type:luminance" maskUnits="userSpaceOnUse" x="122" y="11" width="4" height="3">
<g id="SVGID_9__2">
<path id="Vector_53" d="M125.03 11.6132C125.03 12.1966 124.537 12.9313 123.955 13.2555C123.35 13.5796 122.879 13.3851 122.879 12.8233C122.879 12.2399 123.372 11.5052 123.955 11.181C124.56 10.8353 125.03 11.0298 125.03 11.6132Z" fill="white"/>
</g>
</mask>
<g mask="url(#mask3_45_907)">
<path id="Vector_54" d="M123.217 13.0822C122.903 13.0822 122.836 12.8013 122.836 12.6501C122.836 12.1315 123.284 11.44 123.844 11.1375C124.001 11.051 124.158 11.0078 124.293 11.0078C124.606 11.0078 124.674 11.2887 124.674 11.44C124.674 11.9586 124.225 12.6501 123.665 12.9526C123.508 13.039 123.351 13.0822 123.217 13.0822Z" fill="#FAF9FF"/>
</g>
</g>
</g>
</g>
</g>
<g id="_x31_6_4__3">
<g id="_x31_6_5__3">
<g id="Group_33">
<g id="Group_34">
<path id="Vector_55" d="M146.698 65.4618L146.72 36.6574L131.952 28.3813L131.93 57.2073C131.93 58.3309 132.355 59.1304 133.005 59.4978L147.774 67.7739C147.101 67.3849 146.698 66.607 146.698 65.4618Z" fill="url(#paint10_linear_45_907)"/>
<path id="Vector_56" d="M177.29 0.246741C176.618 -0.142214 175.677 -0.0773886 174.646 0.484436L135.652 22.2011L150.421 30.4772L189.414 8.76054C190.445 8.19872 191.386 8.13389 192.059 8.52284L177.29 0.246741Z" fill="url(#paint11_linear_45_907)"/>
<g id="Group_35">
<g id="Group_36">
<path id="Vector_57" d="M146.702 36.6573L131.934 28.3812C131.934 26.1123 133.57 23.3464 135.631 22.2012L150.4 30.4773C148.36 31.6225 146.702 34.3884 146.702 36.6573Z" fill="#99AAB5"/>
</g>
</g>
<path id="Vector_58" d="M189.409 8.76074L150.393 30.4774C148.331 31.6227 146.695 34.3886 146.695 36.6575V65.4618C146.695 67.7307 148.376 68.6598 150.415 67.5146L189.409 45.7979C191.448 44.6527 193.107 41.8868 193.107 39.6179L193.129 10.8136C193.129 8.54465 191.448 7.63709 189.409 8.76074Z" fill="#D4ECFF"/>
</g>
</g>
<g id="_x31_6_6__3">
<g id="Group_37">
<g id="Group_38">
<path id="Vector_59" d="M182.076 20.7091C181.426 20.3418 180.709 20.1257 179.902 20.0393C178.871 19.9312 177.728 20.0825 176.518 20.493C175.913 20.7091 175.286 20.9684 174.636 21.3142C173.829 21.7463 173.022 22.2866 172.26 22.8916C170.042 24.6419 168.07 27.0188 166.591 29.6335C166.03 30.6059 165.56 31.6215 165.156 32.6371C164.596 34.0416 164.193 35.4462 163.969 36.8508C163.856 37.6071 163.789 38.3418 163.767 39.0765C163.722 42.4474 164.932 44.8027 166.882 45.9048L173.291 49.5134C171.319 48.4114 170.131 46.0344 170.176 42.6851C170.176 41.9504 170.243 41.2157 170.378 40.4594C170.602 39.0765 171.005 37.6503 171.566 36.2457C171.969 35.2301 172.462 34.2145 173 33.2421C174.479 30.6275 176.451 28.2505 178.67 26.5002C179.432 25.8952 180.238 25.3766 181.045 24.9228C181.695 24.5771 182.322 24.2962 182.928 24.1017C184.138 23.6911 185.281 23.5399 186.311 23.6479C187.096 23.7343 187.835 23.9504 188.485 24.3178L182.076 20.7091Z" fill="#301466"/>
<g id="Group_39">
<path id="Vector_60" d="M181.042 24.9444C186.958 21.768 191.687 24.5555 191.597 31.1677C191.508 37.78 186.645 45.7319 180.728 48.9084C174.812 52.0849 170.083 49.2973 170.173 42.6851C170.263 36.0513 175.126 28.1209 181.042 24.9444Z" fill="#291B2A"/>
</g>
</g>
<path id="Vector_61" d="M181.023 25.7868C186.513 22.8264 190.906 25.4195 190.838 31.5563C190.771 37.6932 186.244 45.0617 180.754 48.0221C175.263 50.9825 170.871 48.3894 170.938 42.2526C171.028 36.1157 175.532 28.7472 181.023 25.7868Z" fill="#291B2A"/>
<g id="Group_40">
<g id="Clip path group_5">
<mask id="mask4_45_907" style="mask-type:luminance" maskUnits="userSpaceOnUse" x="172" y="26" width="18" height="22">
<g id="SVGID_4__3">
<path id="Vector_62" d="M180.996 27.689C185.567 25.2472 189.198 27.3865 189.13 32.4861C189.063 37.5858 185.321 43.701 180.749 46.1644C176.177 48.6062 172.547 46.4669 172.614 41.3673C172.681 36.246 176.446 30.1308 180.996 27.689Z" fill="white"/>
</g>
</mask>
<g mask="url(#mask4_45_907)">
<g id="_x30__1__3">
<path id="Vector_63" opacity="0.5" d="M179.131 25.788C174.089 28.5971 170.032 35.3822 170.055 40.9572C170.077 46.5323 174.156 48.8012 179.198 45.992C184.24 43.1829 188.297 36.3978 188.297 30.8012C188.252 25.2478 184.151 23.0005 179.131 25.788Z" fill="#412B42"/>
<path id="Vector_64" d="M179.13 27.3008C174.85 29.6778 171.398 35.4689 171.398 40.2012C171.421 44.9551 174.894 46.8566 179.175 44.4797C183.455 42.1027 186.929 36.3116 186.906 31.5577C186.906 26.8254 183.41 24.9239 179.13 27.3008Z" fill="#291B2A"/>
<g id="Group_41">
<path id="Vector_65" opacity="0.1" d="M178.84 30.2394C176.083 31.7736 173.864 35.4687 173.887 38.5155C173.887 41.5623 176.128 42.794 178.884 41.2598C181.641 39.7256 183.859 36.0305 183.837 32.9837C183.815 29.9368 181.596 28.7052 178.84 30.2394Z" fill="#A567A5"/>
<path id="Vector_66" opacity="0.3" d="M179.084 32.7242C177.582 33.5454 176.395 35.5766 176.395 37.2188C176.395 38.8827 177.605 39.5309 179.106 38.7098C180.608 37.8887 181.795 35.8575 181.795 34.2152C181.795 32.5514 180.563 31.8815 179.084 32.7242Z" fill="#FDC5FF"/>
<path id="Vector_67" opacity="0.3" d="M178.663 33.7616C178.102 34.0641 177.654 34.8204 177.677 35.4254C177.677 36.0305 178.125 36.2898 178.685 35.9873C179.245 35.6847 179.693 34.9284 179.671 34.3234C179.649 33.6967 179.2 33.4591 178.663 33.7616Z" fill="#FDCFFF"/>
</g>
<path id="Vector_68" opacity="0.2" d="M179.131 25.788C174.089 28.5971 170.032 35.3822 170.055 40.9572C170.077 46.5323 174.156 48.8012 179.198 45.992C184.24 43.1829 188.297 36.3978 188.297 30.8012C188.252 25.2478 184.151 23.0005 179.131 25.788Z" fill="url(#paint12_linear_45_907)"/>
</g>
</g>
</g>
</g>
</g>
<path id="Vector_69" d="M173.046 14.0753L149.448 27.2782L140.395 22.2434L163.992 9.04053L173.046 14.0753Z" fill="#412B42"/>
<path id="Vector_70" opacity="0.5" d="M163.992 9.86166L172.307 14.4859L173.046 14.0753L163.992 9.04053L140.395 22.2434L141.134 22.654L163.992 9.86166Z" fill="#412B42"/>
<g id="Group_42">
<g id="Group_43">
<path id="Vector_71" d="M159.933 44.543C159.933 46.7038 158.118 49.4697 155.877 50.723C153.636 51.9763 151.82 51.22 151.82 49.0592C151.82 46.8983 153.636 44.1324 155.877 42.8791C158.118 41.6474 159.933 42.3821 159.933 44.543Z" fill="#412B42"/>
<path id="Vector_72" d="M159.861 45.299C159.861 47.1141 158.338 49.4478 156.433 50.5067C154.55 51.5655 153.004 50.9388 153.004 49.1021C153.004 47.287 154.528 44.9532 156.433 43.8944C158.315 42.8572 159.861 43.4839 159.861 45.299Z" fill="#301466"/>
</g>
<path id="Vector_73" d="M156.748 44.0672C155.112 44.8883 153.812 46.7251 153.812 48.1512C153.812 49.5774 155.135 50.0744 156.748 49.2533C158.384 48.4321 159.684 46.5954 159.684 45.1692C159.684 43.7431 158.362 43.2461 156.748 44.0672Z" fill="url(#paint13_linear_45_907)"/>
</g>
<g id="Group_44">
<g id="Group_45">
<g id="Group_46">
<path id="Vector_74" d="M179.513 7.15964C177.451 8.3265 174.067 8.3265 171.983 7.15964C170.929 6.5762 170.414 5.79829 170.414 5.04199V7.72146C170.414 8.47776 170.929 9.25567 171.983 9.83911C174.067 11.006 177.451 11.006 179.513 9.83911C180.543 9.25567 181.059 8.49937 181.059 7.74307V5.0636C181.059 5.8199 180.543 6.5762 179.513 7.15964Z" fill="url(#paint14_linear_45_907)"/>
</g>
<path id="Vector_75" d="M179.487 2.94644C177.403 1.77957 174.019 1.77957 171.958 2.94644C169.896 4.1133 169.896 5.99325 171.98 7.16012C174.064 8.32699 177.448 8.32699 179.51 7.16012C181.594 5.99325 181.572 4.1133 179.487 2.94644Z" fill="#FFD8FF"/>
</g>
</g>
<path id="Vector_76" d="M178.447 6.46922C177.73 6.85818 176.789 7.09587 175.781 7.09587C174.772 7.09587 173.808 6.87979 173.091 6.46922C172.397 6.08027 172.016 5.58327 172.016 5.04305C172.016 4.50284 172.397 4.00584 173.069 3.61688C173.786 3.22793 174.727 2.99023 175.736 2.99023C176.744 2.99023 177.708 3.20632 178.425 3.61688C179.12 4.00584 179.501 4.50284 179.501 5.04305C179.501 5.58327 179.12 6.10188 178.447 6.46922Z" fill="#412B42"/>
</g>
<path id="Vector_77" opacity="0.5" d="M151.247 24.4267L152.009 24.8588L150.71 25.5935L149.948 25.1614L151.247 24.4267ZM148.513 26.0905L149.051 26.3931L149.23 26.285L148.693 25.9825L148.513 26.0905ZM148.379 25.7016L149.768 26.4795L152.659 24.8805L151.27 24.1025L148.379 25.7016ZM152.413 24.8588L149.768 26.3282L148.625 25.68L151.27 24.2106L152.413 24.8588Z" fill="#412B42"/>
</g>
<path id="Vector_78" opacity="0.5" d="M163.383 11.0722L163.809 10.8345L169.031 13.73L168.605 13.9677L163.383 11.0722ZM163.831 13.233L164.257 12.9737L162.106 11.7636L161.68 12.0013L163.831 13.233ZM162.128 14.1622L162.554 13.9245L160.403 12.7144L159.977 12.9737L162.128 14.1622ZM163.495 16.8201L163.921 16.5824L158.7 13.6868L158.274 13.9245L163.495 16.8201ZM158.722 16.0638L159.148 15.8261L156.996 14.616L156.571 14.8753L158.722 16.0638ZM157.019 17.0145L157.445 16.7768L155.293 15.5668L154.867 15.8045L157.019 17.0145ZM158.386 19.6724L158.812 19.4347L153.59 16.5175L153.164 16.7552L158.386 19.6724ZM153.612 18.9161L154.038 18.6784L151.887 17.4683L151.461 17.706L153.612 18.9161ZM151.909 19.8669L152.335 19.6292L150.184 18.4191L149.758 18.6568L151.909 19.8669ZM153.254 22.5247L153.68 22.287L148.48 19.3699L148.055 19.6076L153.254 22.5247Z" fill="#412B42"/>
<g id="Group_47">
<g id="Group_48">
<path id="Vector_79" opacity="0.5" d="M190.995 11.6121C190.995 12.1955 190.502 12.9302 189.919 13.2544C189.314 13.5785 188.844 13.384 188.844 12.8222C188.844 12.2388 189.337 11.5041 189.919 11.1799C190.525 10.8342 190.995 11.0287 190.995 11.6121Z" fill="#8983BC"/>
<g id="Clip path group_6">
<mask id="mask5_45_907" style="mask-type:luminance" maskUnits="userSpaceOnUse" x="188" y="11" width="3" height="3">
<g id="SVGID_9__3">
<path id="Vector_80" d="M190.995 11.6131C190.995 12.1965 190.502 12.9312 189.919 13.2553C189.314 13.5795 188.844 13.385 188.844 12.8232C188.844 12.2397 189.337 11.5051 189.919 11.1809C190.525 10.8352 190.995 11.0297 190.995 11.6131Z" fill="white"/>
</g>
</mask>
<g mask="url(#mask5_45_907)">
<path id="Vector_81" d="M189.182 13.0821C188.868 13.0821 188.801 12.8012 188.801 12.6499C188.801 12.1313 189.249 11.4399 189.809 11.1373C189.966 11.0509 190.123 11.0077 190.257 11.0077C190.571 11.0077 190.638 11.2886 190.638 11.4399C190.638 11.9585 190.19 12.6499 189.63 12.9525C189.473 13.0389 189.316 13.0821 189.182 13.0821Z" fill="#FAF9FF"/>
</g>
</g>
</g>
</g>
</g>
</g>
<defs>
<linearGradient id="paint0_linear_45_907" x1="-4.47553" y1="43.1766" x2="12.4285" y2="50.3614" gradientUnits="userSpaceOnUse">
<stop stop-color="#3E5FAA"/>
<stop offset="1" stop-color="#301466"/>
</linearGradient>
<linearGradient id="paint1_linear_45_907" x1="9.2295" y1="28.8129" x2="98.9715" y2="-28.3957" gradientUnits="userSpaceOnUse">
<stop stop-color="#3E5FAA"/>
<stop offset="0.2145" stop-color="#3C55A1"/>
<stop offset="0.5772" stop-color="#373B89"/>
<stop offset="1" stop-color="#301466"/>
</linearGradient>
<linearGradient id="paint2_linear_45_907" x1="56.5794" y1="42.7545" x2="25.6885" y2="18.3902" gradientUnits="userSpaceOnUse">
<stop stop-color="#FF3DD5"/>
<stop offset="0.0402" stop-color="#DB34B7"/>
<stop offset="0.0994" stop-color="#AE2A91"/>
<stop offset="0.1641" stop-color="#84206E"/>
<stop offset="0.2332" stop-color="#601751"/>
<stop offset="0.3075" stop-color="#421037"/>
<stop offset="0.3891" stop-color="#2A0A23"/>
<stop offset="0.4806" stop-color="#170613"/>
<stop offset="0.5878" stop-color="#0A0208"/>
<stop offset="0.7254" stop-color="#020102"/>
<stop offset="1"/>
</linearGradient>
<linearGradient id="paint3_linear_45_907" x1="24.6437" y1="44.2174" x2="25.2019" y2="52.9018" gradientUnits="userSpaceOnUse">
<stop stop-color="#3E5FAA"/>
<stop offset="1" stop-color="#301466"/>
</linearGradient>
<linearGradient id="paint4_linear_45_907" x1="49.8084" y1="7.87738" x2="38.4873" y2="7.87738" gradientUnits="userSpaceOnUse">
<stop stop-color="#3E5FAA"/>
<stop offset="1" stop-color="#301466"/>
</linearGradient>
<linearGradient id="paint5_linear_45_907" x1="61.4893" y1="43.1766" x2="78.3934" y2="50.3614" gradientUnits="userSpaceOnUse">
<stop stop-color="#3E5FAA"/>
<stop offset="1" stop-color="#301466"/>
</linearGradient>
<linearGradient id="paint6_linear_45_907" x1="75.1943" y1="28.8129" x2="164.936" y2="-28.3957" gradientUnits="userSpaceOnUse">
<stop stop-color="#3E5FAA"/>
<stop offset="0.2145" stop-color="#3C55A1"/>
<stop offset="0.5772" stop-color="#373B89"/>
<stop offset="1" stop-color="#301466"/>
</linearGradient>
<linearGradient id="paint7_linear_45_907" x1="122.548" y1="42.755" x2="91.6573" y2="18.3907" gradientUnits="userSpaceOnUse">
<stop stop-color="#FF3DD5"/>
<stop offset="0.0402" stop-color="#DB34B7"/>
<stop offset="0.0994" stop-color="#AE2A91"/>
<stop offset="0.1641" stop-color="#84206E"/>
<stop offset="0.2332" stop-color="#601751"/>
<stop offset="0.3075" stop-color="#421037"/>
<stop offset="0.3891" stop-color="#2A0A23"/>
<stop offset="0.4806" stop-color="#170613"/>
<stop offset="0.5878" stop-color="#0A0208"/>
<stop offset="0.7254" stop-color="#020102"/>
<stop offset="1"/>
</linearGradient>
<linearGradient id="paint8_linear_45_907" x1="90.6125" y1="44.2174" x2="91.1706" y2="52.9018" gradientUnits="userSpaceOnUse">
<stop stop-color="#3E5FAA"/>
<stop offset="1" stop-color="#301466"/>
</linearGradient>
<linearGradient id="paint9_linear_45_907" x1="115.777" y1="7.87726" x2="104.456" y2="7.87726" gradientUnits="userSpaceOnUse">
<stop stop-color="#3E5FAA"/>
<stop offset="1" stop-color="#301466"/>
</linearGradient>
<linearGradient id="paint10_linear_45_907" x1="127.454" y1="43.1766" x2="144.358" y2="50.3614" gradientUnits="userSpaceOnUse">
<stop stop-color="#3E5FAA"/>
<stop offset="1" stop-color="#301466"/>
</linearGradient>
<linearGradient id="paint11_linear_45_907" x1="141.159" y1="28.8129" x2="230.901" y2="-28.3957" gradientUnits="userSpaceOnUse">
<stop stop-color="#3E5FAA"/>
<stop offset="0.2145" stop-color="#3C55A1"/>
<stop offset="0.5772" stop-color="#373B89"/>
<stop offset="1" stop-color="#301466"/>
</linearGradient>
<linearGradient id="paint12_linear_45_907" x1="188.509" y1="42.7551" x2="157.618" y2="18.3908" gradientUnits="userSpaceOnUse">
<stop stop-color="#FF3DD5"/>
<stop offset="0.0402" stop-color="#DB34B7"/>
<stop offset="0.0994" stop-color="#AE2A91"/>
<stop offset="0.1641" stop-color="#84206E"/>
<stop offset="0.2332" stop-color="#601751"/>
<stop offset="0.3075" stop-color="#421037"/>
<stop offset="0.3891" stop-color="#2A0A23"/>
<stop offset="0.4806" stop-color="#170613"/>
<stop offset="0.5878" stop-color="#0A0208"/>
<stop offset="0.7254" stop-color="#020102"/>
<stop offset="1"/>
</linearGradient>
<linearGradient id="paint13_linear_45_907" x1="156.573" y1="44.2174" x2="157.132" y2="52.9018" gradientUnits="userSpaceOnUse">
<stop stop-color="#3E5FAA"/>
<stop offset="1" stop-color="#301466"/>
</linearGradient>
<linearGradient id="paint14_linear_45_907" x1="181.738" y1="7.87726" x2="170.417" y2="7.87726" gradientUnits="userSpaceOnUse">
<stop stop-color="#3E5FAA"/>
<stop offset="1" stop-color="#301466"/>
</linearGradient>
</defs>
</svg>
