<svg width="30" height="28" viewBox="0 0 30 28" fill="none" xmlns="http://www.w3.org/2000/svg">
<g id="Group 39942">
<path id="Vector 527" d="M10.3474 3H4C2.34315 3 1 4.34315 1 6V24C1 25.6569 2.34315 27 4 27H24.5C26.1569 27 27.5 25.6569 27.5 24V18.6218" stroke="white" stroke-width="1.5" stroke-linecap="round"/>
<path id="Vector 528" d="M11 14.5L15 18.5M11 14.5L9.50046 19.9983C9.50026 19.9991 9.50094 19.9997 9.50169 19.9995L15 18.5M11 14.5L22.5 3M15 18.5L26.5 7M22.5 3L24.0858 1.41421C24.8668 0.633165 26.1332 0.633164 26.9142 1.41421L28.0858 2.58579C28.8668 3.36683 28.8668 4.63317 28.0858 5.41421L26.5 7M22.5 3L26.5 7" stroke="white" stroke-width="1.5" stroke-linecap="round"/>
</g>
</svg>
