<svg width="36" height="36" viewBox="0 0 36 36" fill="none" xmlns="http://www.w3.org/2000/svg">
<g id="Group 39947">
<g id="Group 39944">
<path id="Vector 545" d="M16.2417 24.2593V27.8704C16.2417 29.5988 14.8405 31 13.1121 31H11.9083C10.8447 31 9.98242 30.1378 9.98242 29.0741V29.0741" stroke="white" stroke-width="1.5" stroke-linecap="round"/>
<path id="Ellipse 302" d="M11.5667 28.1112C10.8877 28.7105 9.99572 29.0742 9.01884 29.0742C6.89152 29.0742 5.16699 27.3496 5.16699 25.2223C5.16699 24.5207 5.35457 23.8629 5.6823 23.2964" stroke="white" stroke-width="1.5" stroke-linecap="round"/>
<path id="Vector 546" d="M7.0931 14.6296V14.3888C7.0931 13.1922 6.12305 12.2222 4.92643 12.2222V12.2222C3.72982 12.2222 2.75977 13.1922 2.75977 14.3888V20.6481C2.75977 21.8447 3.72982 22.8148 4.92643 22.8148V22.8148C6.12305 22.8148 7.0931 21.8447 7.0931 20.6481V20.4074" stroke="white" stroke-width="1.5" stroke-linecap="round"/>
<path id="Vector 547" d="M9.50029 7.88888C8.21634 7.72838 5.64844 8.37036 5.64844 12.2222M16.241 8.85185V8.37037C16.241 6.50897 14.7321 5 12.8707 5V5C11.0093 5 9.50029 6.50897 9.50029 8.37037V9.33333" stroke="white" stroke-width="1.5" stroke-linecap="round"/>
<path id="Vector 548" d="M21.0858 12.5H14.9142C14.649 12.5 14.3946 12.6054 14.2071 12.7929L12.7929 14.2071C12.6054 14.3946 12.5 14.649 12.5 14.9142V21.0858C12.5 21.351 12.6054 21.6054 12.7929 21.7929L14.2071 23.2071C14.3946 23.3946 14.649 23.5 14.9142 23.5H21.0858C21.351 23.5 21.6054 23.3946 21.7929 23.2071L23.2071 21.7929C23.3946 21.6054 23.5 21.351 23.5 21.0858V14.9142C23.5 14.649 23.3946 14.3946 23.2071 14.2071L21.7929 12.7929C21.6054 12.6054 21.351 12.5 21.0858 12.5Z" stroke="white" stroke-width="1.5" stroke-linecap="round"/>
</g>
<g id="Group 39945">
<path id="Vector 545_2" d="M20.2583 11.7407L20.2583 8.12961C20.2583 6.40117 21.6595 4.99998 23.3879 4.99998L24.5917 4.99998C25.6553 4.99998 26.5176 5.86225 26.5176 6.92591V6.92591" stroke="white" stroke-width="1.5" stroke-linecap="round"/>
<path id="Ellipse 302_2" d="M24.9333 7.88892C25.6123 7.28961 26.5043 6.92596 27.4812 6.92596C29.6085 6.92596 31.333 8.65049 31.333 10.7778C31.333 11.4794 31.1454 12.1372 30.8177 12.7037" stroke="white" stroke-width="1.5" stroke-linecap="round"/>
<path id="Vector 546_2" d="M29.4069 21.3704L29.4069 21.6112C29.4069 22.8078 30.377 23.7778 31.5736 23.7778V23.7778C32.7702 23.7778 33.7402 22.8078 33.7402 21.6112L33.7402 15.3519C33.7402 14.1553 32.7702 13.1852 31.5736 13.1852V13.1852C30.377 13.1852 29.4069 14.1553 29.4069 15.3519L29.4069 15.5926" stroke="white" stroke-width="1.5" stroke-linecap="round"/>
<path id="Vector 547_2" d="M26.9997 28.1111C28.2837 28.2716 30.8516 27.6296 30.8516 23.7778M20.259 27.1481L20.259 27.6296C20.259 29.491 21.7679 31 23.6293 31V31C25.4907 31 26.9997 29.491 26.9997 27.6296L26.9997 26.6667" stroke="white" stroke-width="1.5" stroke-linecap="round"/>
</g>
<g id="Group 39946">
<path id="Vector 549 (Stroke)" fill-rule="evenodd" clip-rule="evenodd" d="M17 17.105L18.2344 19.7718C18.3241 19.9657 18.5605 20.0529 18.7624 19.9668C18.9642 19.8807 19.0551 19.6537 18.9654 19.4599L17.5117 16.3193C17.3146 15.8936 16.6854 15.8936 16.4883 16.3193L15.0346 19.4599C14.9449 19.6537 15.0358 19.8807 15.2376 19.9668C15.4395 20.0529 15.6759 19.9657 15.7656 19.7718L17 17.105Z" fill="white"/>
<path id="Vector 550 (Stroke)" fill-rule="evenodd" clip-rule="evenodd" d="M20.5 16C20.7761 16 21 16.1628 21 16.3636V19.6364C21 19.8372 20.7761 20 20.5 20C20.2239 20 20 19.8372 20 19.6364V16.3636C20 16.1628 20.2239 16 20.5 16Z" fill="white"/>
<path id="Vector 551 (Stroke)" fill-rule="evenodd" clip-rule="evenodd" d="M16 18H18V19H16V18Z" fill="white"/>
</g>
</g>
</svg>
