<svg width="41" height="31" viewBox="0 0 41 31" fill="none" xmlns="http://www.w3.org/2000/svg">
<g id="Group 39948">
<path id="Vector 552" d="M26 29H7.82843C7.29799 29 6.78929 28.7893 6.41421 28.4142L1.58579 23.5858C1.21071 23.2107 1 22.702 1 22.1716V6C1 4.34315 2.34315 3 4 3H23.5M27.5 1C26.3878 1.37075 24.2309 2.62119 22.5378 5.0367C21.2667 6.8501 21 9.13283 21 11.3473V25.6468C21 25.8022 21.1696 25.8982 21.3029 25.8183L23.4525 24.5285C23.4836 24.5099 23.5191 24.5 23.5554 24.5H31.9446C31.9809 24.5 32.0164 24.5099 32.0475 24.5285L34.1971 25.8183C34.3304 25.8982 34.5 25.8022 34.5 25.6468V10.7886C34.5 8.93944 34.2927 7.04675 33.2543 5.51667C32.1332 3.86475 30.2735 2.00855 27.5 1Z" stroke="white" stroke-width="1.5" stroke-linecap="square"/>
<path id="Vector 553" d="M20 14L16.3906 16.4063C15.8342 16.7772 15.5 17.4017 15.5 18.0704V20.5C15.5 21.6046 16.3954 22.5 17.5 22.5H20" stroke="white" stroke-width="1.5" stroke-linecap="square"/>
<path id="Vector 554" d="M35 14L38.6094 16.4063C39.1658 16.7772 39.5 17.4017 39.5 18.0704V20.5C39.5 21.6046 38.6046 22.5 37.5 22.5H35" stroke="white" stroke-width="1.5" stroke-linecap="square"/>
<path id="Vector 559" d="M26.0483 25C25.8873 25.9055 26.0411 28.1214 27.8957 29.8813C27.9682 29.9501 28.0813 29.9524 28.1533 29.8831C28.8405 29.2214 30 27.502 30 25" stroke="white" stroke-width="1.5" stroke-linecap="round"/>
<path id="Vector 555" d="M17 8L6 8" stroke="white" stroke-width="1.5" stroke-linecap="round"/>
<path id="Vector 556" d="M17 12L6 12" stroke="white" stroke-width="1.5" stroke-linecap="round"/>
<path id="Vector 557" d="M12 17H6" stroke="white" stroke-width="1.5" stroke-linecap="round"/>
<path id="Vector 558" d="M1 22H6C7.65685 22 9 23.3431 9 25V29" stroke="white" stroke-width="1.5" stroke-linecap="round"/>
<circle id="Ellipse 303" cx="27.5" cy="11.5" r="3.5" stroke="white" stroke-width="1.5"/>
</g>
</svg>
